<svg width="20" height="17" viewBox="0 0 20 17" fill="none" xmlns="http://www.w3.org/2000/svg">
<path d="M8.8585 8.74992C9.17577 8.05274 9.62727 7.42489 10.1872 6.90224C10.7472 6.37959 11.4046 5.97237 12.122 5.70384C12.8393 5.43531 13.6026 5.31074 14.3681 5.33723C15.1336 5.36373 15.8864 5.54077 16.5835 5.85825C17.2807 6.17552 17.9085 6.62703 18.4312 7.18698C18.9538 7.74694 19.361 8.40438 19.6296 9.12174C19.8981 9.8391 20.0227 10.6023 19.9962 11.3679C19.9697 12.1334 19.7926 12.8862 19.4752 13.5833C19.0131 14.6033 18.2665 15.4683 17.3248 16.0744C16.3832 16.6804 15.2866 17.0018 14.1668 16.9999C11.9168 16.9999 9.8585 15.6999 8.89183 13.6666H0.833496V11.9999C0.883496 11.0499 1.5335 10.2749 2.7835 9.64992C4.0335 9.02492 5.60016 8.69992 7.50016 8.66659C7.97516 8.66659 8.42516 8.70825 8.8585 8.74992ZM7.50016 0.333252C8.4335 0.358252 9.21683 0.683252 9.84183 1.30825C10.4668 1.93325 10.7752 2.71659 10.7752 3.66659C10.7752 4.61659 10.4668 5.39992 9.84183 6.02492C9.21683 6.64992 8.4335 6.95825 7.50016 6.95825C6.56683 6.95825 5.7835 6.64992 5.1585 6.02492C4.5335 5.39992 4.22516 4.61659 4.22516 3.66659C4.22516 2.71659 4.5335 1.93325 5.1585 1.30825C5.7835 0.683252 6.56683 0.358252 7.50016 0.333252ZM14.1668 15.3333C15.2719 15.3333 16.3317 14.8943 17.1131 14.1129C17.8945 13.3315 18.3335 12.2717 18.3335 11.1666C18.3335 10.0615 17.8945 9.00171 17.1131 8.22031C16.3317 7.43891 15.2719 6.99992 14.1668 6.99992C13.0618 6.99992 12.002 7.43891 11.2206 8.22031C10.4392 9.00171 10.0002 10.0615 10.0002 11.1666C10.0002 12.2717 10.4392 13.3315 11.2206 14.1129C12.002 14.8943 13.0618 15.3333 14.1668 15.3333ZM13.3335 8.66659H14.5835V11.0166L16.6168 12.1916L15.9918 13.2749L13.3335 11.7416V8.66659Z" fill="white"/>
</svg>
